HIERARCHY
ROOT Hips
{
	OFFSET 0.000000 0.000000 0.000000
	CHANNELS 6 Xposition Yposition Zposition Zrotation Yrotation Xrotation 
	JOINT LHipJoint
	{
		OFFSET 0.000000 0.000000 0.000000
		CHANNELS 3 Zrotation Yrotation Xrotation
		JOINT LeftUpLeg
		{
			OFFSET 1.363060 -1.794630 0.839290
			CHANNELS 3 Zrotation Yrotation Xrotation
			JOINT LeftLeg
			{
				OFFSET 2.448110 -6.726130 0.000000
				CHANNELS 3 Zrotation Yrotation Xrotation
				JOINT LeftFoot
				{
					OFFSET 2.562200 -7.039590 0.000000
					CHANNELS 3 Zrotation Yrotation Xrotation
					JOINT LeftToeBase
					{
						OFFSET 0.157640 -0.433110 2.322550
						CHANNELS 3 Zrotation Yrotation Xrotation
						End Site
						{
							OFFSET 0.000000 0.000000 0.000000
						}
					}
				}
			}
		}
	}
	JOINT RHipJoint
	{
		OFFSET 0.000000 0.000000 0.000000
		CHANNELS 3 Zrotation Yrotation Xrotation
		JOINT RightUpLeg
		{
			OFFSET -1.305520 -1.794630 0.839290
			CHANNELS 3 Zrotation Yrotation Xrotation
			JOINT RightLeg
			{
				OFFSET -2.542530 -6.985550 0.000000
				CHANNELS 3 Zrotation Yrotation Xrotation
				JOINT RightFoot
				{
					OFFSET -2.568260 -7.056230 0.000000
					CHANNELS 3 Zrotation Yrotation Xrotation
					JOINT RightToeBase
					{
						OFFSET -0.164730 -0.452590 2.363150
						CHANNELS 3 Zrotation Yrotation Xrotation
						End Site
						{
							OFFSET 0.000000 0.000000 0.000000
						}
					}
				}
			}
		}
	}
	JOINT LowerBack
	{
		OFFSET 0.000000 0.000000 0.000000
		CHANNELS 3 Zrotation Yrotation Xrotation
		JOINT Spine
		{
			OFFSET 0.028270 2.035590 -0.193380
			CHANNELS 3 Zrotation Yrotation Xrotation
			JOINT Spine1
			{
				OFFSET 0.056720 2.048850 -0.042750
				CHANNELS 3 Zrotation Yrotation Xrotation
				JOINT Neck
				{
					OFFSET 0.000000 0.000000 0.000000
					CHANNELS 3 Zrotation Yrotation Xrotation
					JOINT Neck1
					{
						OFFSET -0.054170 1.746240 0.172020
						CHANNELS 3 Zrotation Yrotation Xrotation
						JOINT Head
						{
							OFFSET 0.104070 1.761360 -0.123970
							CHANNELS 3 Zrotation Yrotation Xrotation
							End Site
							{
								OFFSET 0.000000 0.000000 0.000000
							}
						}
					}
				}
				JOINT LeftShoulder
				{
					OFFSET 0.000000 0.000000 0.000000
					CHANNELS 3 Zrotation Yrotation Xrotation
					JOINT LeftArm
					{
						OFFSET 3.362410 1.200890 -0.311210
						CHANNELS 3 Zrotation Yrotation Xrotation
						JOINT LeftForeArm
						{
							OFFSET 4.983000 -0.000000 -0.000000
							CHANNELS 3 Zrotation Yrotation Xrotation
							JOINT LeftHand
							{
								OFFSET 3.483560 -0.000000 -0.000000
								CHANNELS 3 Zrotation Yrotation Xrotation
								JOINT LeftFingerBase
								{
									OFFSET 0.000000 0.000000 0.000000
									CHANNELS 3 Zrotation Yrotation Xrotation
									JOINT LeftHandIndex1
									{
										OFFSET 0.715260 -0.000000 -0.000000
										CHANNELS 3 Zrotation Yrotation Xrotation
										End Site
										{
											OFFSET 0.000000 0.000000 0.000000
										}
									}
								}
								JOINT LThumb
								{
									OFFSET 0.000000 0.000000 0.000000
									CHANNELS 3 Zrotation Yrotation Xrotation
									End Site
									{
										OFFSET 0.000000 0.000000 0.000000
									}
								}
							}
						}
					}
				}
				JOINT RightShoulder
				{
					OFFSET 0.000000 0.000000 0.000000
					CHANNELS 3 Zrotation Yrotation Xrotation
					JOINT RightArm
					{
						OFFSET -3.136600 1.374050 -0.404650
						CHANNELS 3 Zrotation Yrotation Xrotation
						JOINT RightForeArm
						{
							OFFSET -5.241900 -0.000000 -0.000000
							CHANNELS 3 Zrotation Yrotation Xrotation
							JOINT RightHand
							{
								OFFSET -3.444170 -0.000000 -0.000000
								CHANNELS 3 Zrotation Yrotation Xrotation
								JOINT RightFingerBase
								{
									OFFSET 0.000000 0.000000 0.000000
									CHANNELS 3 Zrotation Yrotation Xrotation
									JOINT RightHandIndex1
									{
										OFFSET -0.622530 -0.000000 -0.000000
										CHANNELS 3 Zrotation Yrotation Xrotation
										End Site
										{
											OFFSET 0.000000 0.000000 0.000000
										}
									}
								}
								JOINT RThumb
								{
									OFFSET 0.000000 0.000000 0.000000
									CHANNELS 3 Zrotation Yrotation Xrotation
									End Site
									{
										OFFSET 0.000000 0.000000 0.000000
									}
								}
							}
						}
					}
				}
			}
		}
	}
}
MOTION
Frames: 6
Frame Time: 0.008333
-4.692951 15.283184 -1.931362 25.968921 77.819932 55.560576 -11.036912 1.429792 -6.782520 -16.830511 17.007357 -45.829990 -0.443937 5.773067 72.838745 -0.105905 -4.077979 -8.873267 0.185900 0.000000 -79.794000 7.616520 1.154888 -0.884371 23.491367 1.121337 -76.922425 1.551107 -5.241707 54.262092 -6.681314 -20.285771 -25.679556 -175.292400 -0.000000 -25.879200 3.220222 -4.206069 10.214840 0.178484 -4.131316 -0.938960 -4.838800 -4.041676 -0.667626 7.766512 -15.245123 -8.865531 -1.489145 -0.065107 -0.748726 0.000000 0.000000 0.000000 9.884505 3.311155 1.610921 -59.712674 11.529443 5.406544 -179.461975 -82.070260 -179.987204 -2.275341 3.836584 -0.070313 0.008165 0.279675 0.000000 0.000000 0.000000 0.000000 0.000000 0.000000 0.000000 3.544174 -10.237017 1.356873 72.751831 -15.912154 5.279296 179.820366 87.867199 -179.973984 5.551385 3.670411 0.197643 -0.097580 -0.327228 -0.000000 0.000000 0.000000 0.000000 0.000000 0.000000 0.000000 
-4.568941 15.276105 -1.901636 24.944568 77.367515 54.260798 -11.148529 1.492007 -6.730887 -16.249130 17.295326 -45.270975 -0.359485 5.795556 73.092165 -0.192374 -4.957337 -7.688255 0.149100 0.000000 -80.876999 7.635682 1.207123 -0.937658 23.381835 1.103080 -76.512496 1.432153 -5.275694 55.325828 -6.660988 -20.263362 -26.267633 -175.015900 -0.000000 -25.746300 3.487023 -4.199836 10.173359 0.232650 -4.121994 -0.944658 -4.869542 -4.032294 -0.630020 7.883121 -15.060075 -8.911379 -1.574640 -0.071328 -0.757559 0.000000 0.000000 0.000000 9.890009 3.603926 1.626396 -61.489939 12.292951 4.873479 -179.506906 -82.762461 -179.985048 -2.623273 3.900314 -0.083051 0.018709 0.275587 0.000000 0.000000 0.000000 0.000000 0.000000 0.000000 0.000000 3.964186 -10.075228 1.289048 73.145250 -15.120293 3.798215 179.832081 88.214517 -179.974855 5.207661 3.654110 0.184774 -0.089843 -0.330981 -0.000000 0.000000 0.000000 0.000000 0.000000 0.000000 0.000000 
-4.444807 15.270909 -1.870177 23.948286 76.894934 53.018195 -11.248503 1.557816 -6.668898 -15.703510 17.558432 -44.739259 -0.280432 5.811346 73.306106 -0.264332 -5.799554 -6.512817 0.075100 -0.000000 -81.766100 7.657802 1.244829 -0.961866 23.272502 1.134616 -76.035622 1.333340 -5.286407 56.216801 -6.651193 -20.228133 -26.919036 -174.722500 -0.000000 -25.635800 3.731393 -4.195077 10.089990 0.281991 -4.115175 -0.952607 -4.902873 -4.025313 -0.566217 8.030975 -14.909924 -8.963293 -1.656403 -0.077225 -0.767031 0.000000 0.000000 0.000000 9.915188 3.949157 1.643271 -63.317838 13.005471 4.245983 -179.554175 -83.546763 -179.982078 -3.128927 3.979564 -0.101903 0.031863 0.270308 0.000000 0.000000 0.000000 0.000000 0.000000 0.000000 0.000000 4.419040 -9.961619 1.203041 73.486775 -14.309284 2.357335 179.844417 88.547809 -179.976692 4.683109 3.607492 0.164409 -0.079370 -0.334637 -0.000000 0.000000 0.000000 0.000000 0.000000 0.000000 0.000000 
-4.320514 15.267420 -1.836781 23.006948 76.401107 51.866692 -11.335314 1.627348 -6.595812 -15.212698 17.797157 -44.254326 -0.206179 5.820667 73.490668 -0.319995 -6.569064 -5.359199 -0.032600 -0.000000 -82.393799 7.683927 1.270430 -0.949882 23.141158 1.228769 -75.515941 1.248952 -5.276545 56.955896 -6.653448 -20.195569 -27.607801 -174.420200 -0.000000 -25.581900 3.949039 -4.191907 9.955701 0.326389 -4.111205 -0.964602 -4.936623 -4.021219 -0.475184 8.200808 -14.800023 -9.020912 -1.730934 -0.082553 -0.776811 0.000000 0.000000 0.000000 9.943052 4.345632 1.660617 -65.159259 13.661220 3.530676 -179.603389 -84.409252 -179.978586 -3.756331 4.083716 -0.126363 0.046492 0.263714 0.000000 0.000000 0.000000 0.000000 0.000000 0.000000 0.000000 4.884744 -9.900577 1.100353 73.785935 -13.491820 0.988798 179.857239 88.869831 -179.979754 3.985503 3.553944 0.138248 -0.066384 -0.338417 -0.000000 0.000000 0.000000 0.000000 0.000000 0.000000 0.000000 
-4.196127 15.265590 -1.801484 22.162031 75.886880 50.848328 -11.408568 1.700611 -6.510797 -14.792392 18.007654 -43.826524 -0.134722 5.823275 73.656583 -0.359713 -7.250694 -4.214947 -0.170900 0.000000 -82.723500 7.715650 1.287223 -0.902656 22.975831 1.372913 -74.982320 1.174782 -5.252095 57.578133 -6.663987 -20.162962 -28.310145 -174.118900 0.000000 -25.608100 4.136605 -4.190729 9.769982 0.365407 -4.110585 -0.980627 -4.969870 -4.020520 -0.356622 8.386299 -14.734933 -9.085582 -1.796420 -0.087156 -0.787298 0.000000 0.000000 0.000000 9.959020 4.796007 1.677960 -66.977502 14.242781 2.748226 -179.654535 -85.342528 -179.974873 -4.467044 4.225360 -0.156629 0.061438 0.255693 0.000000 0.000000 0.000000 0.000000 0.000000 0.000000 0.000000 5.347809 -9.895424 0.983035 74.051597 -12.682428 -0.294118 179.870441 89.170105 -179.983431 3.144289 3.491129 0.107488 -0.051434 -0.342169 -0.000000 0.000000 0.000000 0.000000 0.000000 0.000000 0.000000 
-4.071747 15.265514 -1.764619 21.442760 75.353409 49.990434 -11.469356 1.777226 -6.413170 -14.453217 18.186162 -43.464727 -0.063441 5.819584 73.816932 -0.384630 -7.842846 -3.055844 -0.338200 0.000000 -82.647900 7.753630 1.297827 -0.825269 22.774711 1.544101 -74.461517 1.108057 -5.219562 58.119478 -6.676705 -20.118635 -29.002383 -173.830200 -0.000000 -25.701199 4.294992 -4.191495 9.536901 0.399295 -4.113354 -0.999334 -5.002155 -4.023179 -0.209096 8.583160 -14.716399 -9.161194 -1.852399 -0.090930 -0.799820 0.000000 0.000000 0.000000 9.951542 5.317588 1.695427 -68.737666 14.714713 1.936717 -179.708233 -86.351723 -179.971197 -5.227222 4.414815 -0.192793 0.075637 0.246261 0.000000 0.000000 0.000000 0.000000 0.000000 0.000000 0.000000 5.802768 -9.946101 0.852362 74.290618 -11.893195 -1.494937 179.882591 89.425936 -179.987748 2.210491 3.389477 0.073726 -0.035389 -0.345369 -0.000000 0.000000 0.000000 0.000000 0.000000 0.000000 0.000000 
